<?xml version="1.0" encoding="UTF-8" standalone="no"?>
<svg width="130px" height="70px" viewBox="0 0 130 70" version="1.1" xmlns="http://www.w3.org/2000/svg" xmlns:xlink="http://www.w3.org/1999/xlink" xmlns:sketch="http://www.bohemiancoding.com/sketch/ns">
    <!-- Generator: Sketch Beta 3.2 (9961) - http://www.bohemiancoding.com/sketch -->
    <title>feather</title>
    <desc>Created with Sketch Beta.</desc>
    <defs></defs>
    <g id="Page-1" stroke="none" stroke-width="1" fill="none" fill-rule="evenodd" sketch:type="MSPage">
        <g id="feather" sketch:type="MSArtboardGroup" stroke-width="1.5" stroke="#FFFFFF" fill="#000000">
            <path d="M62.7545597,80.9293443 L62.7545597,91.4097889 C62.7545597,92.4644569 63.6105221,93.3204193 64.6651901,93.3204193 C65.719858,93.3204193 66.5758205,92.4644569 66.5758205,91.4097889 L66.5758205,80.9293443 L70.2404096,80.822349 C70.8161462,80.8057902 71.354944,80.5293857 71.7039525,80.0695606 L84.4414884,63.3324383 C84.9892025,62.6140413 84.9573587,61.6090497 84.366337,60.9263178 L78.959253,54.6696401 L84.014781,51.1438902 C84.5268299,50.7872391 84.8325308,50.2013125 84.8325308,49.5771732 L84.8325308,2.83933241 C84.8325308,2.42026748 84.6949654,2.01394008 84.4402147,1.68021663 L66.1835044,-22.240876 C66.1401967,-22.2981949 66.0803303,-22.3351337 66.0306539,-22.3873576 C65.9555025,-22.4663303 65.8841723,-22.5453031 65.7962833,-22.6115383 C65.7134893,-22.6726784 65.6230528,-22.7134385 65.53389,-22.7605674 C65.4689286,-22.7949588 65.4128834,-22.8420877 65.342827,-22.8688365 C65.187429,-22.9159654 65.0855288,-22.9287029 64.9836285,-22.9452617 C64.893192,-22.9605467 64.805303,-22.9822006 64.7148665,-22.9834743 C64.6244299,-22.9860218 64.5352672,-22.969463 64.4435569,-22.959273 C64.3365616,-22.9465355 64.2333876,-22.9350717 64.1302136,-22.9057753 C63.9951957,-22.8739315 63.9506143,-22.8344451 63.8945691,-22.8102438 C63.7939426,-22.7656624 63.6958636,-22.7198073 63.6041533,-22.6573934 C63.5264543,-22.6051695 63.4602192,-22.5440293 63.3927102,-22.4816154 C63.3417601,-22.4357603 63.2831674,-22.4039164 63.2373123,-22.3516925 L50.5354414,-8.03979708 C50.051415,-7.49335679 49.9202184,-6.7189146 50.1978967,-6.04382519 L53.0676635,0.926154503 L46.407206,0.926154503 C45.352538,0.926154503 44.4965756,1.78211692 44.4965756,2.8367849 L44.4965756,43.126885 C44.4965756,43.6121851 44.6812698,44.0783789 45.0124458,44.4324824 L50.8385947,50.65859 L44.7513263,61.2205549 C44.3666527,61.886728 44.4201504,62.7197629 44.8863442,63.3311646 L57.6238802,80.0682869 C57.9741624,80.5293857 58.5129602,80.807064 59.0886968,80.822349 L62.7545597,80.9293443 Z M75.0360919,52.7488197 C74.5915519,53.0583418 74.301136,53.5423682 74.2336271,54.0786184 C74.1661182,54.6161425 74.3291586,55.156214 74.6845359,55.5650889 L80.463556,62.2522953 L69.2163117,77.0303846 L66.5758205,77.1080835 L66.5758205,75.761726 L66.5758205,-15.4288417 L81.01127,3.48512548 L81.01127,48.5823717 L75.0360919,52.7488197 Z M54.5961679,49.0829568 L48.3178364,42.3740966 L48.3178364,4.74996281 L55.9208716,4.74996281 C56.5577484,4.74996281 57.1538651,4.43152441 57.5079686,3.90291666 C57.8620721,3.37303517 57.929581,2.70176702 57.6875678,2.1120191 L54.1860192,-6.39283368 L62.7558334,-16.0491597 L62.7558334,45.4056302 L56.7131463,40.6914681 C55.8788377,40.0418538 54.6789618,40.190883 54.031895,41.0226441 C53.3822807,41.8544052 53.5300361,43.0555548 54.363071,43.7038954 L62.7571072,50.2522626 L62.7571072,65.3844554 L56.7144201,60.6715671 C55.8801115,60.0219527 54.6802356,60.1709819 54.0331688,61.002743 C53.3835544,61.8345041 53.5313099,63.0356538 54.3643447,63.6839943 L62.7583809,70.2310878 L62.7583809,75.7629997 L62.7583809,77.1093573 L60.116616,77.0316583 L48.7012362,62.0319359 L54.8572873,51.3425957 C55.2763523,50.6140087 55.1706307,49.6969061 54.5961679,49.0829568 Z" sketch:type="MSShapeGroup" transform="translate(64.664190, 35.168341) rotate(90.000000) translate(-64.664190, -35.168341) "></path>
        </g>
    </g>
</svg>