<?xml version="1.0" encoding="UTF-8" standalone="no"?>
<svg width="130px" height="70px" viewBox="0 0 130 70" version="1.1" xmlns="http://www.w3.org/2000/svg" xmlns:xlink="http://www.w3.org/1999/xlink" xmlns:sketch="http://www.bohemiancoding.com/sketch/ns">
    <!-- Generator: Sketch Beta 3.2 (9961) - http://www.bohemiancoding.com/sketch -->
    <title>pens</title>
    <desc>Created with Sketch Beta.</desc>
    <defs></defs>
    <g id="Page-1" stroke="none" stroke-width="1" fill="none" fill-rule="evenodd" sketch:type="MSPage">
        <g id="pens" sketch:type="MSArtboardGroup">
            <g id="capped" sketch:type="MSLayerGroup" transform="translate(65.143695, 20.838603) scale(-1, 1) rotate(-90.000000) translate(-65.143695, -20.838603) translate(16.643695, -32.161397)">
                <g id="Background"></g>
                <g id="Pictograms" transform="translate(40.462213, 0.000000)" fill="#000000" sketch:type="MSShapeGroup">
                    <path d="M11.9353896,2.67942793 L11.9353896,1.83430371 C11.9353896,1.30610107 11.5018659,0.873935276 10.9720035,0.873935276 L1.55008813,0.873935276 C1.02022581,0.873935276 0.586702095,1.30610107 0.586702095,1.83430371 L0.586702095,37.7040648 C0.586702095,38.1554379 0.894985626,38.5299816 1.30924162,38.6260185 L1.30924162,101.667167 C1.30924162,102.070522 1.55972199,102.416255 1.91617482,102.56031 L1.91617482,104.173729 C1.91617482,104.433028 2.02214729,104.682724 2.20519063,104.865194 C2.53274188,105.172512 2.85065928,105.172512 3.53466336,105.162908 L4.07415954,105.153305 L8.91035743,105.162908 L9.23790868,105.162908 C9.70996784,105.162908 9.97008207,105.124494 10.2398302,104.865194 C10.4228735,104.682724 10.528846,104.433028 10.528846,104.173729 L10.5384798,102.579517 C10.9238342,102.454669 11.2032162,102.089729 11.2032162,101.667167 L11.2032162,38.6356221 C11.627106,38.5299816 11.9353896,38.1650416 11.9353896,37.7040648 L11.9353896,4.6001648 L12.8987756,4.6001648 L12.8987756,37.8865348 C12.8987756,38.4243411 13.3322993,38.8469032 13.8621616,38.8469032 C14.4016578,38.8469032 14.8255477,38.4243411 14.8255477,37.8865348 L14.8255477,3.63979637 C14.8255477,3.11159373 14.4016578,2.67942793 13.8621616,2.67942793 L11.9353896,2.67942793 Z M3.23601369,100.706799 L3.23601369,38.6644332 L9.27644412,38.6644332 L9.27644412,100.706799 L3.23601369,100.706799 Z M10.0086175,36.7436963 L2.51347416,36.7436963 L2.51347416,2.79467215 L10.0086175,2.79467215 L10.0086175,36.7436963 L10.0086175,36.7436963 Z" id="Shape"></path>
                </g>
                <g id="Guides"></g>
            </g>
            <g id="clicked" sketch:type="MSLayerGroup" transform="translate(65.121739, 45.950758) rotate(135.000000) translate(-65.121739, -45.950758) translate(22.350262, 2.839502)" fill="#000000">
                <path d="M3.51676594,0 C3.32667048,0 3.0415273,0.0947500115 2.85143184,0.284250035 L0.665334096,2.55825031 C0.285143184,2.93725036 0.285143184,3.50575043 0.665334096,3.88475047 L5.4177205,8.71700106 L3.13657502,11.0857513 L3.13657502,11.0857513 L3.0415273,11.1805014 C2.66133638,11.5595014 2.66133638,12.1280015 3.0415273,12.5070015 L6.84343642,16.297002 L3.99200458,19.1395023 C3.61181367,19.5185024 3.61181367,20.0870024 3.99200458,20.4660025 L23.6668843,40.4582549 C23.8569797,40.6477549 24.0470752,40.742505 24.3322184,40.742505 L29.1796525,40.837255 L29.1796525,45.2905055 C29.1796525,45.5747555 29.2747002,45.7642556 29.4647957,45.9537556 L33.8369912,50.4070061 C34.2171821,50.7860062 34.7874685,50.7860062 35.1676594,50.4070061 C35.3577548,50.2175061 35.4528026,49.9332561 35.4528026,49.743756 C35.4528026,49.459506 35.3577548,49.270006 35.1676594,49.080506 L30.9855593,44.9115055 L30.9855593,40.742505 L31.0806071,40.837255 L31.0806071,40.837255 L62.6364528,72.5785088 C62.6364528,72.5785088 62.7315005,72.5785088 62.7315005,72.6732588 C62.7315005,72.6732588 62.7315005,72.7680088 62.8265482,72.7680088 L77.6539938,82.33776 C77.939137,82.52726 78.2242802,82.52726 78.5094234,82.43251 L83.5469529,85.1802604 C83.9271438,85.3697604 84.4023825,85.2750104 84.6875257,84.9907603 C84.8776211,84.8012603 84.9726689,84.5170103 84.9726689,84.3275102 C84.9726689,84.1380102 84.9726689,84.0432602 84.8776211,83.8537602 L82.121237,78.7372596 C82.121237,78.6425096 82.2162847,78.5477595 82.2162847,78.3582595 C82.2162847,78.1687595 82.121237,77.9792595 82.0261893,77.8845095 L72.5214165,62.9140076 C72.5214165,62.9140076 72.5214165,62.9140076 72.4263688,62.8192576 C72.4263688,62.8192576 72.4263688,62.7245076 72.331321,62.7245076 L12.8314433,2.55825031 C12.6413478,2.36875029 12.3562046,2.27400028 12.1661092,2.27400028 C11.880966,2.27400028 11.6908705,2.36875029 11.5007751,2.55825031 L9.02953416,5.02175061 L4.27714776,0.189500023 C4.08705231,0.0947500115 3.80190912,0 3.51676594,0 L3.51676594,0 Z M34.7874685,27.5722534 L27.7539366,34.6785042 L26.3282207,33.162504 L33.3617525,26.1510032 L34.7874685,27.5722534 L34.7874685,27.5722534 Z M38.9695685,31.7412539 L31.9360366,38.8475047 L29.0846048,36.0050044 L36.1181367,28.8987535 L38.9695685,31.7412539 L38.9695685,31.7412539 Z M43.1516685,35.9102544 L36.1181367,43.0165052 L33.2667048,40.1740049 L40.3002367,33.162504 L43.1516685,35.9102544 L43.1516685,35.9102544 Z M47.3337686,40.1740049 L40.3002367,47.2802557 L37.4488048,44.4377554 L44.4823367,37.3315045 L47.3337686,40.1740049 L47.3337686,40.1740049 Z M51.5158686,44.3430054 L44.4823367,51.4492563 L41.6309049,48.6067559 L48.6644368,41.500505 L51.5158686,44.3430054 L51.5158686,44.3430054 Z M31.9360366,24.729753 L24.9025047,31.7412539 L9.59982053,16.202252 L16.6333524,9.19075112 L31.9360366,24.729753 L31.9360366,24.729753 Z M12.1661092,4.73750058 L15.2076365,7.86425096 L8.26915234,14.7810018 L5.22762504,11.6542514 L12.1661092,4.73750058 L12.1661092,4.73750058 Z M24.7124093,38.7527547 L5.98800687,19.8027524 L8.17410461,17.6235021 L29.2747002,39.0370047 L24.7124093,38.7527547 L24.7124093,38.7527547 Z M45.8130049,52.7757564 L52.8465368,45.6695055 L54.177205,46.9960057 L47.1436731,54.0075066 L45.8130049,52.7757564 L45.8130049,52.7757564 Z M48.569389,55.5235067 L55.6029209,48.4172559 L70.5254142,63.4825077 L63.4918823,70.4940086 L48.569389,55.5235067 L48.569389,55.5235067 Z M80.2202825,78.2635095 L78.2242802,80.2532598 L65.012646,71.7257587 L71.6659869,64.9985079 L80.2202825,78.2635095 L80.2202825,78.2635095 Z M7.69886597,6.44300078 L6.84343642,7.29575089 L2.66133638,3.22150039 L3.51676594,2.36875029 L7.69886597,6.44300078 L7.69886597,6.44300078 Z" id="Shape" sketch:type="MSShapeGroup"></path>
            </g>
        </g>
    </g>
</svg>