<?xml version="1.0" encoding="UTF-8" standalone="no"?>
<svg width="130px" height="70px" viewBox="0 0 130 70" version="1.1" xmlns="http://www.w3.org/2000/svg" xmlns:xlink="http://www.w3.org/1999/xlink" xmlns:sketch="http://www.bohemiancoding.com/sketch/ns">
    <!-- Generator: Sketch Beta 3.2 (9961) - http://www.bohemiancoding.com/sketch -->
    <title>watch</title>
    <desc>Created with Sketch Beta.</desc>
    <defs></defs>
    <g id="Page-1" stroke="none" stroke-width="1" fill="none" fill-rule="evenodd" sketch:type="MSPage">
        <g id="watch" sketch:type="MSArtboardGroup">
            <g sketch:type="MSLayerGroup" transform="translate(64.000000, 33.000000) scale(1, -1) rotate(90.000000) translate(-64.000000, -33.000000) translate(37.000000, -27.000000)">
                <path d="M25.268,39.056 C13.572,39.056 4.056,48.572 4.056,60.268 C4.056,71.964 13.572,81.48 25.268,81.48 C36.964,81.48 46.48,71.964 46.48,60.268 C46.48,48.572 36.964,39.056 25.268,39.056 L25.268,39.056 Z M25.268,79.635 C14.588,79.635 5.901,70.947 5.901,60.268 C5.901,49.589 14.589,40.901 25.268,40.901 C35.947,40.901 44.635,49.589 44.635,60.268 C44.635,70.947 35.948,79.635 25.268,79.635 L25.268,79.635 Z" id="Shape" fill="#000000" sketch:type="MSShapeGroup"></path>
                <path d="M49.724,55.657 C48.467,48.978 44.549,43.232 39.102,39.577 L39.102,5.378 C39.102,2.835 37.034,0.767 34.491,0.767 L16.045,0.767 C13.502,0.767 11.434,2.835 11.434,5.378 L11.434,39.577 C4.766,44.05 0.367,51.653 0.367,60.268 C0.367,68.883 4.766,76.487 11.434,80.959 L11.434,115.158 C11.434,117.701 13.502,119.769 16.045,119.769 L34.49,119.769 C37.033,119.769 39.101,117.701 39.101,115.158 L39.101,80.959 C44.548,77.304 48.466,71.558 49.723,64.879 L51.09,64.879 C52.615,64.879 53.857,63.638 53.857,62.112 L53.857,58.423 C53.858,56.898 52.617,55.657 51.091,55.657 L49.724,55.657 Z M16.046,2.611 L34.491,2.611 C36.016,2.611 37.258,3.852 37.258,5.378 L37.258,38.455 C33.699,36.492 29.613,35.368 25.269,35.368 C20.925,35.368 16.839,36.492 13.28,38.455 L13.28,5.378 C13.279,3.853 14.52,2.611 16.046,2.611 Z M34.49,117.925 L16.045,117.925 C14.52,117.925 13.278,116.684 13.278,115.158 L13.278,82.082 C16.837,84.045 20.923,85.169 25.267,85.169 C29.611,85.169 33.697,84.045 37.256,82.082 L37.256,115.158 C37.257,116.683 36.016,117.925 34.49,117.925 Z M25.268,83.324 C12.555,83.324 2.212,72.981 2.212,60.268 C2.212,47.555 12.555,37.212 25.268,37.212 C37.981,37.212 48.324,47.555 48.324,60.268 C48.324,72.981 37.981,83.324 25.268,83.324 L25.268,83.324 Z M52.013,62.113 C52.013,62.621 51.599,63.035 51.091,63.035 L50.005,63.035 C50.108,62.125 50.169,61.205 50.169,60.268 C50.169,59.331 50.107,58.411 50.005,57.501 L51.091,57.501 C51.599,57.501 52.013,57.915 52.013,58.423 L52.013,62.113 L52.013,62.113 Z" id="Shape" fill="#000000" sketch:type="MSShapeGroup"></path>
                <path d="M26.806,44.666 C27.973,44.778 29.126,45.021 30.234,45.39 C30.331,45.422 30.428,45.437 30.526,45.437 C30.913,45.437 31.272,45.192 31.401,44.807 C31.561,44.322 31.3,43.8 30.818,43.64 C29.579,43.227 28.289,42.955 26.983,42.829 C26.491,42.8 26.026,43.151 25.976,43.66 C25.927,44.167 26.3,44.617 26.806,44.666 L26.806,44.666 Z" id="Shape" fill="#000000" sketch:type="MSShapeGroup"></path>
                <path d="M34.979,45.674 C34.56,45.393 33.985,45.505 33.7,45.93 C33.417,46.353 33.533,46.926 33.956,47.209 C36.507,48.907 38.49,51.291 39.689,54.099 C39.838,54.451 40.179,54.659 40.538,54.659 C40.659,54.659 40.783,54.636 40.9,54.585 C41.368,54.385 41.587,53.843 41.386,53.375 C40.044,50.235 37.828,47.573 34.979,45.674 L34.979,45.674 Z" id="Shape" fill="#000000" sketch:type="MSShapeGroup"></path>
                <path d="M32.1347656,44.5683594 L32.1347656,60.0185547 L23.7851563,68" id="Path-71" stroke="#000000" stroke-width="2" stroke-linecap="round" stroke-linejoin="round" sketch:type="MSShapeGroup" transform="translate(27.959961, 56.284180) rotate(90.000000) translate(-27.959961, -56.284180) "></path>
            </g>
        </g>
    </g>
</svg>